<svg width="16" height="16" viewBox="0 0 16 16" fill="none" xmlns="http://www.w3.org/2000/svg">
<g clip-path="url(#clip0_2269_62)">
<path d="M8.04 16.0399C12.4583 16.0399 16.04 12.4582 16.04 8.03997C16.04 3.62171 12.4583 0.0400085 8.04 0.0400085C3.62174 0.0400085 0.0400391 3.62171 0.0400391 8.03997C0.0400391 12.4582 3.62174 16.0399 8.04 16.0399Z" fill="#FFCA2B"/>
<path d="M4.64283 11.9528C3.68011 11.4513 3.88194 10.5424 4.19566 10.3773C4.50938 10.2122 4.77223 10.2993 4.89875 10.3925C5.09165 10.5349 4.99099 10.9061 4.7449 10.9435C4.5415 10.9743 4.43638 10.8398 4.44472 10.7523C4.65414 10.9146 4.7743 10.7907 4.76554 10.6752C4.75208 10.4955 4.32911 10.4187 4.25479 10.7523C4.18055 11.086 4.50418 11.2652 4.88933 11.3149C5.28505 11.366 5.82653 11.3541 6.2443 10.9703C6.64985 10.5978 6.95424 10.3429 7.2844 10.376C7.61472 10.4089 7.78797 10.5163 7.9779 10.5163C8.16776 10.5163 8.48313 10.3188 8.80511 10.3353C9.127 10.3518 9.40439 10.6952 9.75106 10.9676C10.0977 11.24 10.3516 11.3645 10.946 11.381C11.5403 11.3975 11.7506 11.1272 11.7836 10.8878C11.8166 10.6484 11.6064 10.4646 11.3752 10.4894C11.1441 10.5142 11.1138 10.7907 11.28 10.8549C11.3802 10.8934 11.4782 10.848 11.5194 10.7524C11.6102 10.9787 11.1799 11.1355 11.0159 10.8879C10.8672 10.6568 11.0149 10.345 11.2553 10.2771C11.4963 10.2088 11.9289 10.2914 12.0755 10.6174C12.2404 10.9842 12.1221 11.5813 11.602 11.8785C11.0819 12.1757 10.2811 12.3079 9.5134 12.2666C8.74565 12.2253 8.4567 12.0685 8.4567 12.0685C8.27825 12.0005 8.13365 11.9101 8.02283 11.7972C7.34262 12.4819 5.4228 12.3591 4.64267 11.9529L4.64283 11.9528Z" fill="#4A1A0E"/>
<path d="M0.956654 7.93162C0.933944 7.90454 0.937578 7.86407 0.964664 7.84136C0.99175 7.81865 1.03221 7.82229 1.05492 7.84937L1.1868 8.00718L1.27095 7.54085C1.27715 7.50609 1.31043 7.48305 1.34511 7.48924C1.35419 7.49089 1.36245 7.49428 1.36955 7.49915L1.95645 7.89438L2.18371 7.27016C2.19577 7.23696 2.23243 7.21978 2.26571 7.23176C2.27694 7.2358 2.28636 7.24274 2.29338 7.25133L2.72849 7.75275L2.9996 7.07089C3.01256 7.03811 3.04981 7.02209 3.08259 7.03505C3.0925 7.03902 3.10084 7.04513 3.10737 7.05264L3.62143 7.64466L3.99279 6.89368C4.0084 6.86196 4.0468 6.849 4.07851 6.86461C4.08916 6.86989 4.09767 6.87765 4.10378 6.88699L4.52881 7.53747L4.87136 6.78525C4.88606 6.75312 4.92396 6.739 4.95608 6.7537C4.96641 6.75841 4.97483 6.76551 4.98102 6.77402L5.49269 7.47083L5.81962 6.739C5.8221 6.73347 5.82524 6.72851 5.82895 6.72406C5.58039 6.74165 5.33744 6.76221 5.10101 6.78541C5.41374 4.5432 6.61099 2.87335 8.04061 2.87335C9.47023 2.87335 10.6676 4.54312 10.9802 6.78541C10.7335 6.76122 10.4798 6.73991 10.2199 6.72183C10.2244 6.72678 10.2283 6.73256 10.2312 6.739L10.5591 7.47165L11.0688 6.77534C11.0751 6.76625 11.0838 6.75857 11.0947 6.75362C11.1268 6.73884 11.1649 6.75288 11.1796 6.78492L11.5261 7.53334L11.9457 6.88913C11.9518 6.87906 11.9606 6.87047 11.9718 6.86477C12.0034 6.84883 12.0419 6.86155 12.0578 6.8931L12.4344 7.63896L12.9435 7.05248C12.9498 7.04513 12.9579 7.0391 12.9675 7.03522C13.0002 7.02184 13.0375 7.03736 13.051 7.07007L13.328 7.74425L13.7586 7.24968C13.7653 7.242 13.774 7.23572 13.7841 7.23184C13.8172 7.21929 13.8542 7.2358 13.8669 7.26892L14.1056 7.89314L14.6809 7.49899C14.6882 7.49411 14.6966 7.49065 14.7057 7.48899C14.7405 7.4828 14.7737 7.50592 14.7799 7.54061L14.864 8.00694L14.9959 7.84913C15.0186 7.82204 15.059 7.81841 15.0862 7.84112C15.1133 7.86382 15.1169 7.90421 15.0942 7.93137L14.8746 8.19423C14.8644 8.20637 14.8507 8.2138 14.8362 8.21628C14.9658 8.24766 15.0896 8.27994 15.2071 8.31314C14.4667 9.04893 11.5395 9.59842 8.04045 9.59842C4.54153 9.59842 1.61391 9.04901 0.873413 8.31322C1.20142 8.22065 1.57741 8.13485 1.99444 8.05698C1.98015 8.05838 1.96537 8.055 1.95257 8.04633L1.37913 7.65993L1.28879 8.16037C1.28706 8.17614 1.27938 8.19134 1.26625 8.20232C1.23916 8.22503 1.1987 8.2214 1.17599 8.19431L0.956406 7.93146L0.956654 7.93162ZM5.92111 6.71786C5.92326 6.71984 5.92532 6.72199 5.92722 6.72422L6.52304 7.43606L6.94956 6.68979C6.95567 6.67913 6.96435 6.67087 6.97442 6.66534C6.61421 6.67707 6.2625 6.69482 5.9212 6.71786H5.92111ZM7.03223 6.66352C7.0338 6.66427 7.03536 6.66509 7.03702 6.666C7.04726 6.67187 7.05527 6.68012 7.0608 6.6897L7.57023 7.40939L7.94407 6.67137C7.94886 6.66187 7.9558 6.65403 7.96389 6.64825C7.64819 6.64899 7.33728 6.65419 7.03231 6.66361L7.03223 6.66352ZM8.03838 6.64808C8.0492 6.65576 8.05704 6.66641 8.06134 6.67831L8.46895 7.41286L8.99251 6.6864C8.99788 6.67822 9.00523 6.67112 9.01439 6.66592C9.01662 6.66468 9.01885 6.66361 9.02108 6.66262C8.70034 6.65295 8.37308 6.648 8.04061 6.648H8.03838V6.64808ZM8.00337 6.83752L7.63655 7.56166C7.63184 7.57067 7.62507 7.57868 7.61623 7.58495C7.61442 7.58627 7.6126 7.58743 7.6107 7.5885C7.75315 7.58718 7.89651 7.58644 8.04069 7.58644C8.17158 7.58644 8.30181 7.58702 8.43121 7.58817C8.4289 7.58693 8.42675 7.58553 8.42461 7.58396C8.41668 7.57826 8.41049 7.57116 8.40611 7.56315L8.00345 6.8376L8.00337 6.83752ZM7.54926 7.58908C7.54075 7.58454 7.53316 7.57802 7.52721 7.56959L7.01109 6.84041L6.58869 7.57958C6.58497 7.58594 6.5801 7.59189 6.57416 7.59684C6.56491 7.60452 6.55417 7.60923 6.54311 7.61096C6.87243 7.59998 7.20829 7.59263 7.54934 7.58892L7.54926 7.58908ZM6.52733 7.61163C6.51098 7.61014 6.49529 7.60246 6.4839 7.58892L5.89477 6.88492L5.56594 7.62104C5.56164 7.63194 5.55438 7.64177 5.54422 7.6492C5.53968 7.6525 5.53489 7.65515 5.52985 7.65713C5.85472 7.6383 6.18752 7.6231 6.52725 7.61163H6.52733ZM5.48996 7.65944C5.47634 7.65581 5.46379 7.64771 5.45478 7.63541L4.94262 6.93777L4.59893 7.69247C4.5943 7.70486 4.58588 7.71584 4.57399 7.7236L4.5725 7.72451C4.86995 7.69957 5.17608 7.67777 5.48996 7.65927V7.65944ZM4.51486 7.72947C4.50313 7.72476 4.49265 7.7165 4.48521 7.70511L4.05803 7.05107L3.69377 7.78769C3.69005 7.79512 3.68493 7.80197 3.67824 7.80775C3.67634 7.8094 3.67436 7.81089 3.67238 7.81229C3.94407 7.78182 4.22525 7.75416 4.51494 7.72947H4.51486ZM3.61309 7.81898C3.60367 7.81535 3.595 7.8094 3.5879 7.80123L3.0797 7.21582L2.8095 7.89529C2.80595 7.90553 2.79976 7.91494 2.791 7.92254C2.78952 7.92378 2.78803 7.92502 2.78654 7.92609C3.05055 7.88752 3.32645 7.85169 3.61317 7.81898H3.61309ZM2.72824 7.9346C2.71792 7.93104 2.70834 7.92477 2.70074 7.91593L2.26687 7.41591L2.05001 8.01156C2.0482 8.01767 2.04547 8.02353 2.04175 8.02907C2.03292 8.0422 2.02004 8.05095 2.00583 8.05491C2.23474 8.0123 2.47579 7.97209 2.72824 7.93451V7.9346ZM14.7874 8.20463L14.7845 8.20232C14.7714 8.19134 14.7638 8.17614 14.762 8.16037L14.6718 7.66068L14.1109 8.04484C14.1014 8.05128 14.0908 8.05491 14.0801 8.05574C14.3312 8.10256 14.5674 8.15219 14.7873 8.20455L14.7874 8.20463ZM14.0468 8.04963C14.0372 8.04492 14.0285 8.03765 14.022 8.02816C14.0191 8.02395 14.0168 8.01949 14.015 8.01486L13.7854 7.41451L13.3568 7.90668C13.3451 7.92014 13.329 7.92749 13.3125 7.92857C13.569 7.96631 13.8143 8.00669 14.0468 8.04955V8.04963ZM13.286 7.92477C13.279 7.92213 13.2723 7.91824 13.2663 7.91304C13.2572 7.9052 13.2509 7.89529 13.2474 7.88463L12.9722 7.21491L12.4687 7.79504C12.4596 7.80552 12.448 7.8123 12.4354 7.81535C12.7307 7.84871 13.0147 7.88529 13.2861 7.92485L13.286 7.92477ZM12.3917 7.81031C12.387 7.808 12.3826 7.80503 12.3785 7.80148C12.3719 7.79586 12.3668 7.78917 12.3632 7.78191L11.9936 7.05016L11.5702 7.70023C11.5616 7.71361 11.5488 7.72261 11.5347 7.72674C11.8294 7.7516 12.1154 7.77959 12.3917 7.81031H12.3917ZM11.4886 7.72286C11.4863 7.7217 11.4839 7.72047 11.4817 7.71898C11.4712 7.71213 11.4634 7.70271 11.4585 7.69214L11.109 6.93736L10.5975 7.63632C10.59 7.64647 10.58 7.65382 10.5691 7.65812C10.8836 7.67645 11.1905 7.69817 11.4887 7.72294L11.4886 7.72286ZM10.5158 7.65506C10.5131 7.65358 10.5104 7.65192 10.5079 7.65011C10.4978 7.64268 10.4904 7.63285 10.4861 7.62195L10.1563 6.885L9.56603 7.59552C9.56041 7.60221 9.55372 7.6075 9.54646 7.61129C9.87636 7.62236 10.1998 7.63706 10.5158 7.65506ZM9.48386 7.60931C9.48114 7.60766 9.47858 7.60584 9.4761 7.60378C9.46999 7.59866 9.46503 7.59271 9.4614 7.58619L9.03933 6.84L8.51371 7.56926C8.50768 7.5776 8.5 7.58413 8.49141 7.58859C8.82768 7.59189 9.15883 7.59883 9.48386 7.60923V7.60931ZM10.1321 6.71596C9.78932 6.69309 9.43605 6.67575 9.07443 6.66427C9.0855 6.66972 9.09507 6.67847 9.1016 6.69003L9.52713 7.44258L10.1221 6.72637C10.125 6.72257 10.1283 6.7191 10.1321 6.71596Z" fill="#4A1A0E"/>
</g>
<defs>
<clipPath id="clip0_2269_62">
<rect width="16" height="16" fill="white"/>
</clipPath>
</defs>
</svg>
