<?xml version="1.0" encoding="UTF-8" standalone="no"?>
<!DOCTYPE svg PUBLIC "-//W3C//DTD SVG 1.1//EN" "http://www.w3.org/Graphics/SVG/1.1/DTD/svg11.dtd">
<svg width="100%" height="100%" viewBox="0 0 3659 2709" version="1.1" xmlns="http://www.w3.org/2000/svg" xmlns:xlink="http://www.w3.org/1999/xlink" xml:space="preserve" xmlns:serif="http://www.serif.com/" style="fill-rule:evenodd;clip-rule:evenodd;stroke-linecap:round;stroke-linejoin:round;stroke-miterlimit:10;">
    <g id="Layer-1" serif:id="Layer 1" transform="matrix(4.16667,0,0,4.16667,0,0)">
        <g transform="matrix(1,0,0,1,1,1)">
            <path d="M340.201,107.158C344.495,81.225 353.695,54.371 369.321,33.287C383.056,14.757 402.636,0 426.551,0C450.467,0 470.046,14.757 483.781,33.287C499.408,54.371 508.608,81.225 512.902,107.159C531.06,109.082 549.296,111.73 567.114,115.596C584.505,119.37 629.228,127.845 633.611,151.741C665.128,162.514 695.879,176.239 724.396,193.403C786.503,230.784 842.992,288.384 851.901,363.209C856.704,365.548 861.043,368.758 864.674,372.722C875.275,384.294 878.135,399.995 874.706,415.039C868.93,440.378 846.855,461.414 826.438,476.382C802.171,516.986 764.577,549.246 724.396,573.43C637.193,625.915 527.416,647.989 426.551,647.989C344.377,647.989 258.943,633.624 183.105,601.126C170.748,608.321 158.759,616.138 147.118,624.442C140.366,629.72 133.349,635.283 124.566,636.502C107.767,638.833 99.204,624.892 96.044,610.617C94.205,602.311 93.804,593.459 93.445,584.973C93.098,576.778 93.002,568.576 92.812,560.376C92.727,556.701 92.859,552.993 93.353,549.34C40.836,508.745 0,452.08 0,383.416C0,299.443 60.553,234.423 128.706,193.403C157.223,176.239 187.974,162.514 219.491,151.741C223.948,127.452 267.839,119.555 285.591,115.682C303.534,111.768 321.909,109.096 340.201,107.158ZM426.55,618.309C374.3,618.309 321.629,612.338 270.954,599.473C226.833,588.273 183.084,571.552 144.009,548.033C112.245,528.916 82.093,504.315 60.493,473.927C41.433,447.114 29.679,416.52 29.679,383.416C29.679,350.313 41.433,319.719 60.493,292.906C82.093,262.518 112.245,237.918 144.009,218.8C180.935,196.575 222.005,180.443 263.561,169.29L264.265,169.101L264.962,169.318C275.114,172.474 285.571,174.902 296.002,176.933C308.658,179.398 321.45,181.284 334.254,182.788C364.799,186.374 395.804,187.86 426.55,187.86C457.296,187.86 488.301,186.374 518.845,182.787C531.649,181.284 544.44,179.397 557.095,176.933C567.526,174.902 577.982,172.473 588.133,169.316L588.83,169.1L589.535,169.289C631.092,180.441 672.164,196.574 709.091,218.8C740.855,237.918 771.007,262.518 792.607,292.906C811.667,319.719 823.421,350.313 823.421,383.416C823.421,416.52 811.667,447.114 792.607,473.927C771.007,504.315 740.855,528.916 709.091,548.033C670.016,571.552 626.267,588.273 582.147,599.473C531.471,612.338 478.801,618.309 426.55,618.309" style="fill:rgb(255,202,7);"/>
        </g>
        <g transform="matrix(1,0,0,1,1,119.844)">
            <path d="M426.55,7.2C541.195,7.2 645.203,35.299 720.683,80.728C798.049,127.293 845.901,192.254 845.901,264.572C845.901,336.891 798.049,401.853 720.683,448.417C645.203,493.846 541.195,521.945 426.55,521.945C311.905,521.945 207.897,493.846 132.418,448.417C55.051,401.853 7.199,336.891 7.199,264.572C7.199,192.254 55.051,127.293 132.418,80.728C207.897,35.299 311.905,7.2 426.55,7.2ZM707.792,102.115C636.021,58.918 536.603,32.2 426.55,32.2C316.497,32.2 217.079,58.918 145.309,102.115C75.424,144.177 32.199,201.653 32.199,264.572C32.199,327.492 75.424,384.969 145.309,427.03C217.079,470.227 316.497,496.945 426.55,496.945C536.603,496.945 636.021,470.227 707.792,427.03C777.677,384.969 820.901,327.492 820.901,264.572C820.901,201.653 777.677,144.177 707.792,102.115" style="fill:rgb(75,30,11);fill-rule:nonzero;"/>
        </g>
        <g transform="matrix(1,0,0,1,1,-328.137)">
            <path d="M622.833,483.384C604.565,503.988 523.635,519.517 426.55,519.517C326.358,519.517 243.36,502.979 228.697,481.391L288.911,461.91C288.911,461.91 378.961,460.477 559.06,457.609L622.833,483.384Z" style="fill:rgb(75,30,11);"/>
        </g>
        <g transform="matrix(0.0169386,0.999857,0.999857,-0.0169386,-163.002,-351.011)">
            <path d="M482.547,501.387C417.501,509.116 368.474,543.721 369.163,584.383C369.842,624.473 418.62,657.042 482.547,663.242C483.401,663.325 484.258,663.403 485.118,663.476L482.547,501.387Z" style="fill:rgb(75,30,11);"/>
        </g>
        <g transform="matrix(1,0,0,1,1,-380.207)">
            <path d="M426.55,491.219C537.092,491.219 626.704,511.351 626.704,536.184C626.704,536.785 626.635,537.381 626.531,537.976C584.931,525.249 510.928,516.779 426.55,516.779C342.172,516.779 268.169,525.249 226.569,537.976C226.465,537.381 226.397,536.785 226.397,536.184C226.397,511.351 316.008,491.219 426.55,491.219" style="fill:rgb(255,202,7);"/>
        </g>
        <g transform="matrix(1,0,0,1,1,-384.543)">
            <path d="M617.347,529.398L611.365,536.557L608.411,520.182L590.915,532.166L583.622,513.096L570.038,528.696L561.416,507.719L545.847,525.657L534.418,503.022L521.232,523.267L510.467,500.02L494.788,521.444L484.63,498.748L466.764,520.251L453.932,497.559L438.023,519.634L425.485,497.038M234.929,529.398L240.911,536.557L243.865,520.182L261.699,532.199L268.655,513.096L282.415,528.954L290.86,507.719L306.58,525.827L317.858,503.022L331.165,523.393L341.808,500.02L357.518,521.419L367.647,498.748L385.483,520.064L398.343,497.559L413.984,519.655L425.475,496.975" style="fill:none;fill-rule:nonzero;stroke:rgb(75,30,11);stroke-width:3px;"/>
        </g>
        <g transform="matrix(1,0,0,1,1,431.568)">
            <path d="M142.808,188.104C137.234,192.46 130.726,197.81 123.576,198.802C110.943,200.555 105.378,188.908 103.072,178.492C101.384,170.863 100.968,161.917 100.637,154.101C100.292,145.946 100.199,137.798 100.009,129.64C99.795,120.437 101.057,110.554 107.143,103.235C111.475,98.027 116.663,95.679 122.545,92.731C179.234,64.321 236.899,47.418 300.453,45.546C352.272,44.02 401.759,52.693 452.543,61.102C477.723,65.271 502.912,69.218 528.331,71.643C555.347,74.22 582.325,75.023 609.426,73.302C678.607,68.907 743.006,48.353 805.062,18.053C807.492,16.866 810.181,17.085 812.387,18.65C814.593,20.215 815.689,22.681 815.372,25.366C814.466,33.043 810.27,42.261 805.997,48.53C805.523,49.225 805.018,49.751 804.342,50.253C752.004,89.153 696.128,114.82 631.251,123.53C578.017,130.677 525.994,125.482 473.008,120.003C420.308,114.554 368.813,109.618 315.922,116.707C251.498,125.342 195.507,150.488 142.808,188.104" style="fill:rgb(75,30,11);"/>
        </g>
        <g transform="matrix(1,0,0,1,1,216.834)">
            <path d="M818.357,192.905C815.661,200.515 807.438,204.668 799.772,201.921C792.15,199.19 788.173,190.778 790.914,183.156C796.859,166.621 809.479,152.815 827.566,150.447C839.335,148.906 851.316,152.966 859.364,161.751C868.367,171.579 870.589,184.864 867.685,197.605C859.395,233.973 812.139,263.708 781.78,279.504C774.582,283.249 765.703,280.444 761.961,273.245C758.322,266.243 759.505,256.16 767.038,252.244C767.113,252.206 767.177,252.174 767.253,252.137C785.945,243.2 806.155,231.748 821.328,217.452C828.499,210.696 836.801,201.011 839.055,191.123C839.736,188.135 839.974,184.007 837.73,181.557C836.13,179.81 833.599,179.272 831.321,179.555C824.655,180.382 820.401,187.137 818.357,192.905" style="fill:rgb(75,30,11);"/>
        </g>
        <g transform="matrix(1,0,0,1,1,405.471)">
            <path d="M800.047,70.571C807.094,60.233 808.221,50.619 808.221,50.619C502.995,199.655 389.26,-6.928 125.77,125.265C116.067,129.983 106.694,133.452 107.207,155.57C107.505,168.42 107.607,191.761 110.102,203.033C115.487,227.355 128.543,216.204 138.497,208.431C392.445,27.056 558.036,250.446 800.047,70.571" style="fill:rgb(255,202,7);"/>
        </g>
        <g transform="matrix(1,0,0,1,1,-156.746)">
            <path d="M218.987,401.734C217.915,400.496 217.284,398.872 217.14,397.089L217.122,396.872L217.122,392.359C217.122,387.418 218.475,381.929 223.763,380.195L224.583,379.926L246.773,379.926L247.593,380.195C252.881,381.929 254.234,387.418 254.234,392.359L254.234,395.313L254.229,395.43C254.077,398.93 253.573,403.211 251.02,405.846L250.705,406.171C252.377,407.105 253.626,408.643 254.098,410.706L254.234,411.301L254.234,419.641L254.1,420.231C253.345,423.562 250.573,425.523 247.259,425.791L247.041,425.809L224.583,425.809L223.763,425.54C218.475,423.806 217.122,418.317 217.122,413.377L217.122,410.427L217.127,410.316C217.241,407.547 217.583,404.281 218.987,401.734ZM261.484,425.54C256.196,423.806 254.843,418.317 254.843,413.377L254.843,392.359C254.843,387.418 256.196,381.929 261.484,380.195L262.304,379.926L284.495,379.926L285.315,380.195C290.603,381.929 291.955,387.418 291.955,392.359L291.955,413.377C291.955,418.317 290.603,423.806 285.315,425.54L284.495,425.809L262.304,425.809L261.484,425.54Z" style="fill:rgb(75,30,11);"/>
        </g>
        <g transform="matrix(1,0,0,1,1,-156.746)">
            <path d="M222.522,410.539C222.67,406.945 223.24,404.645 224.214,403.647L236.774,398.159C237.14,397.917 237.319,397.418 237.319,396.654L237.319,395.196L234.029,395.196L234.029,396.654C233.944,397.816 233.484,398.479 232.665,398.666L223.895,398.666C223.068,398.479 222.616,397.816 222.522,396.654L222.522,392.359C222.522,388.312 223.497,385.966 225.446,385.326L245.911,385.326C247.86,385.966 248.834,388.312 248.834,392.359L248.834,395.196C248.678,398.79 248.117,401.082 247.142,402.088L234.583,407.569C234.217,407.818 234.029,408.317 234.029,409.081L234.029,410.539L246.823,410.539C247.976,410.632 248.647,411.092 248.834,411.911L248.834,419.037C248.647,419.863 247.976,420.315 246.823,420.409L225.446,420.409C223.497,419.77 222.522,417.423 222.522,413.377L222.522,410.539ZM263.167,420.409C261.218,419.77 260.243,417.423 260.243,413.377L260.243,392.359C260.243,388.312 261.218,385.966 263.167,385.326L283.632,385.326C285.581,385.966 286.556,388.312 286.556,392.359L286.556,413.377C286.556,417.423 285.581,419.77 283.632,420.409L263.167,420.409ZM275.041,410.453L275.041,395.282L271.665,395.282L271.665,410.453L275.041,410.453Z" style="fill:rgb(255,202,7);fill-rule:nonzero;"/>
        </g>
        <g transform="matrix(1,0,0,1,1,-156.746)">
            <path d="M568.637,405.053L568.637,400.682L568.357,400.682L568.159,400.667C564.817,400.421 562.007,398.438 561.27,395.074L561.145,394.502L561.145,386.119L561.267,385.553C561.997,382.19 564.788,380.212 568.122,379.944L568.339,379.926L584.764,379.926L585.336,380.052C588.699,380.789 590.682,383.598 590.929,386.94L590.944,387.139L590.944,405.053L591.045,405.053L591.245,405.068C594.566,405.315 597.358,407.28 598.12,410.613L598.257,411.208L598.257,419.641L598.123,420.231C597.368,423.562 594.596,425.523 591.282,425.791L591.064,425.809L568.339,425.809L568.122,425.792C564.788,425.523 561.998,423.546 561.267,420.183L561.145,419.617L561.145,411.233L561.27,410.661C562.007,407.297 564.817,405.314 568.159,405.068L568.357,405.053L568.637,405.053ZM634.473,397.968C635.603,400.248 635.978,403.007 635.978,405.612L635.978,413.377C635.978,418.317 634.625,423.806 629.337,425.54L628.517,425.809L606.326,425.809L605.507,425.54C600.219,423.806 598.866,418.317 598.866,413.377L598.866,392.359C598.866,387.418 600.219,381.929 605.507,380.195L606.326,379.926L628.785,379.926L629.003,379.944C632.317,380.213 635.089,382.173 635.844,385.505L635.978,386.094L635.978,394.528L635.842,395.122C635.589,396.225 635.115,397.177 634.473,397.968" style="fill:rgb(75,30,11);"/>
        </g>
        <g transform="matrix(1,0,0,1,1,-156.746)">
            <path d="M590.845,420.409L568.556,420.409C567.394,420.315 566.724,419.863 566.545,419.037L566.545,411.818C566.724,410.999 567.394,410.539 568.556,410.453L574.037,410.453L574.037,395.282L568.556,395.282C567.394,395.196 566.724,394.736 566.545,393.918L566.545,386.699C566.724,385.872 567.394,385.42 568.556,385.326L584.179,385.326C584.998,385.506 585.458,386.176 585.544,387.338L585.544,410.453L590.845,410.453C591.999,410.539 592.669,410.999 592.856,411.818L592.856,419.037C592.669,419.863 591.999,420.315 590.845,420.409ZM607.189,420.409C605.24,419.77 604.266,417.423 604.266,413.377L604.266,392.359C604.266,388.312 605.24,385.966 607.189,385.326L628.566,385.326C629.72,385.42 630.39,385.872 630.578,386.699L630.578,393.918C630.39,394.736 629.72,395.196 628.566,395.282L615.687,395.282L615.687,398.572L627.654,398.572C629.603,399.211 630.578,401.558 630.578,405.612L630.578,413.377C630.578,417.423 629.603,419.77 627.654,420.409L607.189,420.409ZM615.687,410.453L619.063,410.453L619.063,407.07L615.687,407.07L615.687,410.453Z" style="fill:rgb(255,202,7);fill-rule:nonzero;"/>
        </g>
        <g transform="matrix(1,0,0,1,1,141.869)">
            <path d="M235.287,286.725C235.564,284.146 236.452,281.605 238.112,279.234C240.752,275.463 244.894,273.157 249.541,273.264C247.345,270.728 246.019,267.411 246.019,263.706C246.019,261.63 246.472,259.486 247.28,257.574L261.272,223.216L261.294,223.163C265.344,213.654 272.388,205.325 283.503,205.325C295.443,205.325 304.693,213.377 304.693,225.453C304.693,230.252 303.085,235.101 300.137,238.902C301.463,244.796 303.646,250.882 305.357,256.524C306.623,260.695 307.825,264.97 308.713,269.298C311.167,265.273 313.219,261.002 314.925,256.879C317.392,250.917 321.938,246.588 328.662,246.588C330.405,246.588 332.038,246.933 333.69,247.462C339.71,249.389 343.831,254.047 343.831,260.518C343.831,262.796 343.276,264.912 342.458,267.02C331.26,295.862 310.558,320.138 277.481,320.138C264.397,320.138 251.952,314.706 242.861,305.384C242.546,306.866 242.037,308.332 241.323,309.748C233.535,325.182 221.188,338.455 203.841,342.584C192.036,345.394 179.164,345.352 168.135,339.787C161.143,336.258 155.879,332.187 150.93,326.88C138.796,332.642 125.517,335.123 111.971,333.814C109.336,333.559 106.715,333.16 104.119,332.635C90.19,329.82 78.288,322.488 69.222,311.584C60.583,301.193 55.138,288.405 52.679,275.173L52.633,274.923L52.601,274.671C48.925,244.73 53.18,220.189 71.257,195.525C76.314,188.626 82.398,182.299 89.484,177.466C94.512,174.037 100.455,171.097 106.491,170.076C114.576,168.708 120.429,171.662 122.615,176.289C128.061,171.717 134.408,168.06 141.493,165.552C148.972,162.905 156.985,161.726 164.907,162.254C173.116,162.801 181.085,165.181 188.149,169.422C197.123,174.809 203.91,182.675 208.176,192.213C213.315,203.701 214.373,216.597 213.173,229.01C212.78,233.08 212.155,237.128 211.345,241.136C206.961,262.832 196.639,285.074 182.204,302.106C183.608,303.701 185.189,305.173 186.96,306.216C195.6,311.305 205.701,300.55 209.229,293.558C213.699,284.701 224.51,281.139 233.369,285.606C234.039,285.944 234.679,286.318 235.287,286.725ZM103.388,206.658C96.02,216.515 90.853,227.934 88.382,240.155C86.513,249.401 86.214,259.161 88.003,268.443C89.383,275.604 92.131,282.966 96.835,288.623C99.447,291.765 102.552,294.22 106.146,295.82C102.375,287.15 105.991,276.933 114.537,272.619C126.098,266.783 138.806,264.127 151.092,269.61C153.76,270.8 156.246,272.303 158.572,274.03C167.151,262.33 173.323,247.983 176.136,234.061C176.702,231.263 177.134,228.436 177.409,225.595C178.203,217.373 177.678,205.046 169.681,200.245C167.522,198.948 165.016,198.302 162.516,198.135C159.46,197.932 156.351,198.438 153.47,199.458C144.122,202.766 138.183,210.876 137.333,220.693C137.319,220.851 137.308,221.15 137.338,221.364C137.425,221.411 137.53,221.454 137.597,221.477C138.233,221.704 138.955,221.711 139.611,221.579C141.601,221.178 143.362,219.564 144.574,218.011C150.672,210.2 161.977,208.812 169.786,214.911C177.593,221.01 178.98,232.309 172.886,240.118C166.286,248.575 157.26,254.655 146.68,256.789C139.671,258.203 132.341,257.775 125.595,255.375C118.701,252.921 112.664,248.542 108.314,242.644C102.949,235.369 100.699,226.564 101.476,217.594C101.801,213.839 102.445,210.184 103.388,206.658ZM262.704,280.19C264.838,282.385 269.13,285.726 272.346,285.726C272.602,285.726 273.209,285.708 273.41,285.482C274.052,284.761 274.177,282.65 274.177,281.769C274.177,279.135 273.267,275.492 272.396,272.331C269.728,275.964 265.701,278.34 260.846,278.344C261.494,278.932 262.114,279.551 262.704,280.19ZM229.431,214.21C222.029,213.812 216.622,208.72 216.622,201.014C216.622,195.071 219.841,189.224 223.989,185.13C229.022,180.165 235.683,177.344 242.771,177.344C255.368,177.344 263.785,186.748 263.785,199.243C263.785,215.27 251.422,235.176 236.545,241.47L236.284,241.581L236.015,241.67C234.426,242.2 232.764,242.57 231.083,242.57C224.611,242.57 219.632,237.559 219.632,231.12C219.632,227.265 221.702,223.647 224.529,221.134L224.585,221.084L224.643,221.035C226.316,219.61 228.856,216.712 229.431,214.21ZM637.973,234.733C648.833,218.264 665.28,205.164 685.325,205.164C709.333,205.164 720.506,223.521 720.506,245.658C720.506,253.237 719.285,261.01 717.089,268.468C720.4,263.87 723.12,258.073 724.247,255.511C724.486,254.967 724.737,254.43 725.011,253.903L738.005,221.992L738.028,221.939C742.078,212.431 749.121,204.102 760.236,204.102C772.177,204.102 781.427,212.153 781.427,224.229C781.427,229.029 779.819,233.877 776.871,237.678C778.197,243.573 780.379,249.658 782.091,255.3C783.356,259.472 784.559,263.746 785.447,268.074C787.9,264.049 789.953,259.778 791.659,255.656C794.126,249.693 798.672,245.365 805.395,245.365C807.139,245.365 808.771,245.71 810.423,246.238C816.444,248.165 820.565,252.823 820.565,259.294C820.565,261.572 820.009,263.688 819.191,265.796C807.994,294.638 787.292,318.914 754.215,318.914C740.769,318.914 727.997,313.178 718.849,303.378C713.651,305.301 708.171,306.163 702.503,306.163C699.999,306.163 697.448,306.025 694.939,305.674C685.959,313.955 674.778,319.446 662.303,319.446C649.237,319.446 637.573,315.431 630.432,305.81C618.971,315.16 604.928,319.446 589.517,319.446C575.765,319.446 561.935,315.34 552.821,305.44C544.25,313.976 533.731,318.206 520.45,318.206C512.326,318.206 503.979,315.694 497.727,310.52C491.261,315.238 483.638,318.206 475.468,318.206C454.406,318.206 444.891,302.427 444.891,283.025C444.891,251.664 469.66,205.341 505.043,205.341C510.812,205.341 516.955,207.026 521.765,210.426C525.06,208.045 528.938,206.581 533.201,206.581C543.244,206.581 550.672,214.846 550.672,224.761C550.672,228.11 550.009,231.191 548.698,234.268L547.129,238.103L537.195,262.585L537.172,262.638C534.386,269.206 531.859,275.836 529.129,282.402C528.898,283.104 528.54,284.607 528.761,285.388L528.773,285.388C530.278,285.388 532.235,283.867 533.256,282.909C536.456,279.907 538.877,275.403 540.545,271.401L540.597,271.276L540.654,271.153C542.627,266.878 544.373,262.285 546.164,257.911C553.856,233.053 575.973,205.341 604.039,205.341C612.973,205.341 621.901,207.814 628.624,213.918C634.579,219.324 637.806,226.739 637.973,234.733ZM626.479,259.002C621.87,262.571 616.16,264.723 609.883,264.723C600.673,264.723 592.451,260.035 589.778,251.796C586.105,258.459 583.435,266.695 583.435,273.993C583.435,281.663 586.059,286.628 594.299,286.628C609.928,286.628 619.158,277.606 624.6,263.594L624.721,263.282L624.871,262.981C625.48,261.764 625.976,260.372 626.479,259.002ZM475.696,197.959C470.415,198.58 467.503,200.02 464.217,204.415C461.673,207.816 459.586,211.979 457.773,215.808C454.68,222.34 451.922,229.105 449.197,235.799L424.388,296.758L418.012,312.165C414.47,320.726 407.2,327.415 397.546,327.415C387.615,327.415 379.898,320.209 379.898,310.12C379.898,307.054 380.519,304.192 381.617,301.338L381.647,301.262L385.747,291.277L410.537,230.54C414.719,220.295 419.839,208.044 426.81,197.959L411.006,197.959C405.203,197.959 396.382,198.365 391.136,201.148C388.544,202.523 387.391,204.098 387.391,207.051C387.391,209.138 388.752,209.686 390.393,210.749C396.053,214.416 399.965,218.06 399.965,225.469C399.965,235.119 392.847,242.941 383.024,242.941C364.029,242.941 351.031,226.709 351.031,208.468C351.031,196.062 356.778,184.671 366.095,176.613C378.675,165.734 395.833,162.13 412.068,162.13L484.677,162.13C494.261,162.13 503.211,167.547 503.211,178.008C503.211,189.604 492.183,197.959 481.135,197.959L475.696,197.959ZM749.245,271.528C747.505,275.198 745.563,278.808 743.363,282.236C745.237,283.502 747.319,284.503 749.079,284.503C749.335,284.503 749.943,284.484 750.143,284.259C750.786,283.537 750.911,281.426 750.911,280.546C750.911,278.028 750.079,274.588 749.245,271.528ZM668.14,284.591C667.583,282.491 667.322,280.323 667.322,278.066C667.322,267.92 673.186,258.674 682.26,254.647C683.069,250.875 683.615,246.911 683.615,243.179C683.615,242.041 683.477,239.069 682.917,237.475C681.549,238.055 679.727,239.742 679.033,240.454C675.902,243.666 673.253,247.963 671.192,251.925C666.955,260.07 662.773,271.924 662.773,281.077C662.773,282.102 662.999,285.859 663.928,286.573C664.038,286.623 664.313,286.628 664.428,286.628C665.539,286.628 666.911,285.695 668.14,284.591ZM505.428,240.194C500.616,242.463 495.349,250.375 493.395,253.767C489.315,260.851 484.793,272.032 484.793,280.191C484.793,280.624 484.821,281.468 484.925,282.206C485.704,281.757 486.578,280.993 486.939,280.638C489.776,277.849 491.939,273.527 493.405,269.886L498.546,257.125L505.428,240.194Z" style="fill:rgb(75,30,11);"/>
        </g>
        <g transform="matrix(1,0,0,1,1,-176.989)">
            <path d="M345.541,408.369C355.333,409.045 365.227,407.349 372.756,400.433C381.819,392.107 393.346,381.05 406.674,382.382C410.91,382.805 414.742,383.707 418.815,384.871C420.595,385.379 422.988,386.168 424.848,386.168C426.367,386.168 430.927,384.421 432.5,383.899C437.47,382.253 442.461,380.976 447.748,381.247C459.6,381.854 468.817,393.103 477.594,399.999C486.633,407.101 492.417,409.1 503.328,409.627C502.685,408.964 502.095,408.229 501.569,407.424C494.958,397.298 500.696,383.162 512.16,379.92C523.531,376.704 538.027,382.037 543.03,393.169C546.242,400.317 546.225,408.797 543.87,416.191C541.074,424.971 535.125,432.157 527.136,436.722C509.99,446.519 485.727,449.275 466.287,448.229C457.955,447.781 442.81,446.239 434.913,442.211C431.796,440.993 428.81,439.474 426.071,437.59C413.616,446.256 395.4,448.627 381.103,448.717C365.493,448.814 344.642,446.154 330.677,438.881C318.651,432.618 309.085,422.251 307.709,408.31C306.825,399.36 309.928,387.704 318.469,383.209C326.873,378.786 337.382,378.398 345.248,384.201C353.349,390.177 352.195,402.166 345.541,408.369" style="fill:rgb(255,202,7);"/>
        </g>
        <g transform="matrix(1,0,0,1,1,-171.075)">
            <path d="M334.002,426.581C307.779,412.924 313.277,388.163 321.822,383.666C330.368,379.169 337.528,381.54 340.974,384.081C346.228,387.958 343.486,398.071 336.784,399.089C331.244,399.928 328.381,396.263 328.607,393.882C334.31,398.301 337.583,394.928 337.346,391.781C336.979,386.887 325.457,384.794 323.434,393.882C321.411,402.971 330.227,407.852 340.719,409.207C351.498,410.601 366.248,410.275 377.627,399.821C388.674,389.673 396.964,382.733 405.958,383.632C414.955,384.53 419.676,387.454 424.848,387.454C430.02,387.454 438.609,382.074 447.38,382.524C456.148,382.973 463.702,392.328 473.146,399.747C482.59,407.168 489.504,410.557 505.695,411.006C521.885,411.456 527.612,404.095 528.511,397.573C529.409,391.052 523.684,386.046 517.387,386.721C511.091,387.396 510.267,394.928 514.793,396.674C517.522,397.725 520.191,396.488 521.315,393.882C523.788,400.047 512.066,404.317 507.598,397.573C503.55,391.276 507.57,382.786 514.12,380.934C520.686,379.076 532.471,381.325 536.463,390.206C540.952,400.196 537.731,416.462 523.564,424.556C509.397,432.652 487.586,436.25 466.673,435.126C445.761,434.001 437.891,429.728 437.891,429.728C433.029,427.876 429.09,425.413 426.073,422.338C407.545,440.988 355.252,437.646 334.002,426.581" style="fill:rgb(75,30,11);fill-rule:nonzero;"/>
        </g>
        <g transform="matrix(1,0,0,1,1,216.021)">
            <path d="M811.57,191.314C810.179,195.197 806.084,197.347 802.201,195.956C798.318,194.565 796.298,190.288 797.689,186.405C804.078,168.651 816.44,159.978 828.501,158.399C838.195,157.13 847.687,160.476 854.055,167.427C860.325,174.272 863.49,184.425 860.665,196.817C855.996,217.302 833.875,245.094 778.457,273.93C774.784,275.839 770.259,274.409 768.349,270.736C766.44,267.064 766.686,261.355 770.359,259.445C822.338,234.594 842.225,210.426 846.075,193.536C847.695,186.43 846.191,180.946 843.039,177.506C839.986,174.173 835.304,172.585 830.434,173.223C823.338,174.07 815.725,179.543 811.57,191.314" style="fill:rgb(255,202,7);fill-rule:nonzero;"/>
        </g>
        <g transform="matrix(1,0,0,1,1,427.079)">
            <path d="M162.853,126.567C165.658,127.714 167.752,130.988 169.171,133.488L169.21,133.556L170.552,136.177C172.427,139.842 173.826,144.675 170.51,148.02L170.105,148.428L150.678,158.368L150.11,158.458C145.457,159.189 142.357,155.228 140.481,151.563L138.439,147.571L138.384,147.438C137.654,145.676 137.624,143.806 138.507,142.271C135.698,141.118 133.605,137.855 132.187,135.345L132.15,135.281L130.811,132.662C128.936,128.997 127.537,124.165 130.853,120.82L131.258,120.411L150.685,110.472L151.253,110.382C155.906,109.65 159.006,113.611 160.881,117.277L162.924,121.269L162.979,121.403C163.708,123.166 163.736,125.031 162.853,126.567ZM188.08,140.443C183.444,140.878 180.529,136.703 178.901,132.96L170.433,113.491C168.79,109.715 167.697,104.805 171.216,101.674L171.645,101.292L191.656,92.587L192.228,92.534C196.864,92.099 199.778,96.274 201.407,100.017L209.875,119.486C211.518,123.261 212.611,128.171 209.093,131.302L208.663,131.685L188.652,140.39L188.08,140.443ZM245.775,97.943C247.611,98.382 248.984,99.82 249.697,101.689L249.748,101.824L251.366,107.368C252.518,111.321 252.984,116.33 249.099,118.992L248.624,119.317L227.676,125.428L227.101,125.409C222.393,125.254 220.092,120.78 218.939,116.827L212.994,96.446C211.841,92.494 211.376,87.484 215.262,84.823L215.736,84.497L236.684,78.386L237.259,78.405C241.967,78.561 244.267,83.035 245.42,86.987L247.038,92.531L247.067,92.673C247.473,94.644 247.092,96.588 245.775,97.943ZM278.381,110.741C277.895,111.396 277.236,111.943 276.395,112.332L276.044,112.494L266.64,114.588L266.251,114.59C263.606,114.599 261.755,112.807 261.003,110.37L260.927,110.125L255.922,78.536L255.971,78.065C256.242,75.487 257.766,73.501 260.115,72.438L260.454,72.285L278.288,68.312L278.659,68.307C281.244,68.271 283.475,69.429 284.805,71.664L285.042,72.061L293.911,102.765L293.946,103.008C294.317,105.539 293.403,107.959 290.998,109.077L290.644,109.241L281.24,111.336L280.853,111.338C279.927,111.343 279.098,111.128 278.381,110.741ZM319.699,87.474L325.977,86.807L326.111,86.803C328.655,86.723 330.94,87.897 331.796,90.388L331.928,90.773L332.783,98.829L332.736,99.229C332.428,101.845 330.452,103.467 327.954,103.939L327.811,103.965L307.463,106.126L307.078,106.085C304.441,105.799 302.81,103.81 302.336,101.298L302.31,101.156L298.966,69.669L298.962,69.524C298.898,66.97 300.076,64.683 302.593,63.849L302.96,63.728L312.447,62.721L312.833,62.763C315.462,63.052 317.099,65.043 317.571,67.549L317.598,67.691L319.699,87.474Z" style="fill:white;"/>
        </g>
        <g transform="matrix(1,0,0,1,1,426.734)">
            <path d="M135.321,133.92L134.016,131.368C132.154,127.729 131.951,125.171 133.409,123.699L151.812,114.284C153.859,113.961 155.815,115.623 157.677,119.262L159.653,123.124C160.103,124.213 160.001,125.016 159.344,125.565L151.458,129.6C150.636,129.809 149.917,129.424 149.298,128.423L148.628,127.112L145.669,128.625L146.34,129.936C146.692,130.624 147.089,130.986 147.53,131.035L161.349,130.192C162.684,130.641 164.247,132.45 166.041,135.61L167.347,138.162C169.208,141.801 169.412,144.359 167.953,145.831L149.551,155.246C147.504,155.568 145.548,153.907 143.686,150.268L141.71,146.405C141.259,145.318 141.358,144.507 142.018,143.965L149.905,139.93C150.723,139.715 151.446,140.106 152.058,141.111L152.728,142.422L155.686,140.908L155.016,139.598C154.664,138.91 154.274,138.544 153.829,138.489L140.014,139.338C138.675,138.883 137.108,137.083 135.321,133.92ZM187.744,137.204C185.681,137.397 183.832,135.616 182.202,131.869L173.734,112.4C172.103,108.652 172.061,106.086 173.609,104.709L192.564,96.463C194.627,96.27 196.475,98.051 198.105,101.799L206.574,121.267C208.204,125.015 208.247,127.581 206.699,128.958L187.744,137.204ZM194.73,123.199L188.618,109.146L185.491,110.506L191.604,124.559L194.73,123.199ZM216.45,95.783C215.306,91.859 215.587,89.308 217.296,88.138L237.14,82.349C239.211,82.417 240.82,84.417 241.964,88.341L243.541,93.746C243.779,94.899 243.53,95.677 242.779,96.085L234.275,98.565C233.431,98.623 232.795,98.103 232.375,97.003L231.625,94.432L228.352,95.387L232.643,110.099L235.917,109.144L235.167,106.574C234.929,105.421 235.186,104.641 235.929,104.235L244.433,101.754C245.286,101.695 245.913,102.216 246.333,103.317L247.91,108.722C249.054,112.645 248.773,115.197 247.064,116.368L227.219,122.156C225.148,122.088 223.54,120.087 222.395,116.164L216.45,95.783ZM278.709,72.252C280.06,72.233 281.067,72.767 281.712,73.85L290.385,103.874C290.555,105.039 290.249,105.801 289.481,106.157L280.834,108.084C279.98,108.088 279.386,107.526 279.039,106.402L277.935,102.493L275.183,103.106L275.795,107.124C275.958,108.29 275.66,109.05 274.884,109.409L266.238,111.335C265.391,111.338 264.79,110.778 264.443,109.653L259.552,78.786C259.684,77.531 260.368,76.62 261.599,76.063L278.709,72.252ZM272.663,83.715L272.117,83.837L274.076,95.785L275.875,95.384L272.663,83.715ZM305.874,100.977L302.561,69.779C302.531,68.603 302.914,67.881 303.725,67.612L312.44,66.687C313.282,66.779 313.815,67.404 314.033,68.561L316.499,91.779L326.225,90.746C327.393,90.709 328.115,91.1 328.391,91.902L329.161,99.153C329.061,100.003 328.436,100.529 327.286,100.746L307.467,102.851C306.617,102.759 306.092,102.134 305.874,100.977" style="fill:rgb(75,30,11);fill-rule:nonzero;"/>
        </g>
        <g transform="matrix(1,0,0,1,1,141.866)">
            <path d="M139.268,300.526C139.115,300.378 138.961,300.233 138.806,300.09C135.33,296.911 131.827,296.095 127.485,298.286C122.174,300.967 115.693,298.831 113.015,293.52C110.336,288.208 112.472,281.73 117.782,279.05C127.386,274.201 137.927,271.623 148.158,276.188C152.427,278.094 156.165,281.021 159.51,284.385C171.253,270.914 179.676,252.898 183.194,235.49C183.808,232.451 184.277,229.378 184.575,226.291C185.67,214.959 184.184,200.557 173.387,194.075C170.239,192.186 166.644,191.197 162.994,190.955C158.96,190.686 154.873,191.327 151.068,192.674C139.061,196.923 131.254,207.44 130.16,220.075C129.992,222.008 130.312,224.039 131.486,225.63C132.404,226.875 133.738,227.75 135.184,228.264C137.055,228.93 139.092,229.032 141.033,228.641C144.793,227.883 147.931,225.414 150.249,222.445C153.904,217.763 160.673,216.933 165.353,220.589C170.034,224.245 170.863,231.011 167.209,235.692C161.671,242.79 154.143,247.942 145.256,249.735C139.524,250.891 133.527,250.558 128.009,248.594C122.466,246.622 117.607,243.117 114.109,238.374C109.774,232.497 108.022,225.462 108.649,218.219C110.487,196.996 123.782,179.462 143.896,172.343C150.452,170.022 157.482,168.978 164.428,169.441C171.496,169.912 178.357,171.945 184.443,175.598C192.153,180.227 197.938,186.962 201.604,195.156C206.228,205.493 207.085,217.163 206.007,228.32C205.637,232.143 205.049,235.949 204.288,239.713C199.94,261.231 189.343,283.52 174.58,299.893C174.017,300.517 173.449,301.133 172.873,301.741C173.31,302.382 173.756,303.017 174.217,303.642C176.717,307.028 179.646,310.268 183.306,312.424C196.089,319.952 210.084,307.85 215.657,296.806C218.337,291.495 224.816,289.36 230.127,292.039C235.439,294.717 237.574,301.198 234.894,306.509C228.133,319.908 217.437,331.95 202.174,335.583C192.058,337.991 180.856,338.145 171.379,333.362C162.989,329.128 157.865,324.301 152.642,317.874C140.757,324.651 127.315,328.067 112.664,326.651C110.275,326.42 107.898,326.057 105.546,325.582C93.209,323.088 82.767,316.616 74.759,306.985C66.906,297.539 62.069,285.856 59.758,273.861L59.752,273.829L59.748,273.797C56.404,245.566 60.132,222.887 77.064,199.785C81.627,193.56 87.144,187.78 93.541,183.418C97.662,180.607 102.728,178.018 107.692,177.178C116.299,175.723 119.606,180.792 112.424,186.764C96.451,200.046 85.442,218.365 81.325,238.732C79.271,248.895 78.967,259.607 80.933,269.809C82.547,278.186 85.799,286.615 91.298,293.23C96.113,299.021 102.345,302.987 109.768,304.487C111.395,304.816 113.04,305.06 114.693,305.219C123.563,306.077 131.809,304.218 139.268,300.526ZM331.495,254.323C330.433,253.969 329.547,253.792 328.662,253.792C325.474,253.792 323.172,255.74 321.578,259.636C316.797,271.147 310.598,281.065 302.629,287.617C302.806,286.023 302.983,284.252 302.983,282.481C302.983,266.897 294.483,249.719 292.357,236.614C295.722,233.957 297.493,229.53 297.493,225.457C297.493,218.904 293.066,212.529 283.503,212.529C277.481,212.529 271.992,216.425 267.918,225.988L253.928,260.344C253.397,261.584 253.219,262.824 253.219,263.709C253.219,268.314 256.938,271.147 260.835,271.147C263.668,271.147 266.679,269.376 268.095,265.126L274.648,248.833C275.71,261.407 281.377,273.981 281.377,281.773C281.377,289.565 277.481,292.93 272.346,292.93C267.918,292.93 262.251,290.096 257.47,285.138C251.449,278.585 246.49,279.825 244.011,283.367C241.531,286.909 241.531,292.93 247.021,299.305C256.053,309.222 267.741,312.942 277.481,312.942C305.463,312.942 324.589,293.107 335.746,264.417C336.277,263.001 336.631,261.761 336.631,260.522C336.631,257.511 334.86,255.386 331.495,254.323ZM233.739,234.843C247.552,228.999 256.585,210.404 256.585,199.247C256.585,189.329 250.032,184.548 242.771,184.548C231.437,184.548 223.822,194.288 223.822,201.018C223.822,204.383 225.77,207.039 230.374,207.039C234.625,207.039 236.75,209.695 236.75,213.237C236.75,217.31 234.093,222.446 229.312,226.519C227.718,227.936 226.832,229.707 226.832,231.124C226.832,233.426 228.426,235.374 231.083,235.374C231.791,235.374 232.676,235.197 233.739,234.843ZM808.229,253.099C807.166,252.745 806.281,252.568 805.395,252.568C802.208,252.568 799.906,254.516 798.312,258.412C793.53,269.924 787.332,279.841 779.363,286.393C779.54,284.799 779.717,283.028 779.717,281.258C779.717,265.673 771.216,248.495 769.091,235.39C772.456,232.734 774.227,228.306 774.227,224.233C774.227,217.68 769.799,211.305 760.236,211.305C754.215,211.305 748.725,215.201 744.652,224.764L731.541,256.961C731.295,257.41 731.061,257.893 730.838,258.412C723.046,276.122 715.431,282.143 708.701,282.143C707.108,282.143 705.691,281.789 704.274,281.08C710.118,269.924 713.306,257.173 713.306,245.661C713.306,227.244 704.983,212.368 685.325,212.368C661.317,212.368 641.725,235.379 633.989,259.548C632.896,262.093 632.238,264.351 631.311,266.204C624.228,284.445 611.654,293.831 594.299,293.831C581.371,293.831 576.235,284.977 576.235,273.997C576.235,255.224 590.934,229.9 606.341,229.9C610.768,229.9 613.779,231.671 615.196,234.859C616.081,236.807 614.664,237.338 612.894,236.098C611.3,235.213 609.352,234.681 607.581,234.681C600.143,234.681 596.069,240.172 596.069,245.839C596.069,251.683 600.32,257.527 609.883,257.527C621.04,257.527 630.78,247.787 630.78,235.39C630.78,222.816 621.04,212.545 604.039,212.545C581.027,212.545 560.379,235.954 552.95,260.342C549.767,268.087 548.175,272.042 547.191,274.174C541.878,286.925 534.617,292.592 528.773,292.592C522.752,292.592 519.919,286.747 522.398,279.841C523.283,277.716 525.586,271.517 530.544,259.829L540.461,235.39L542.055,231.494C543.118,229.014 543.472,226.889 543.472,224.764C543.472,218.212 538.691,213.784 533.201,213.784C529.305,213.784 525.054,215.91 521.69,220.691C518.856,215.732 512.126,212.545 505.043,212.545C475.291,212.545 452.091,253.808 452.091,283.028C452.091,298.79 458.821,311.009 475.468,311.009C483.083,311.009 491.229,307.645 498.313,300.561C502.563,306.936 510.887,311.009 520.45,311.009C534.901,311.009 545.088,305.382 553.348,293.61C559.024,305.032 571.726,312.249 589.517,312.249C607.283,312.249 621.747,306.062 632.352,293.972C636.097,305.146 645.502,312.249 662.303,312.249C673.814,312.249 684.262,306.582 692.586,297.904C695.419,298.613 698.784,298.967 702.503,298.967C709.468,298.967 715.634,297.486 721.156,294.423C721.831,295.619 722.689,296.844 723.755,298.081C732.787,307.999 744.475,311.718 754.215,311.718C782.196,311.718 801.322,291.883 812.479,263.194C813.01,261.777 813.365,260.537 813.365,259.298C813.365,256.287 811.594,254.162 808.229,253.099ZM743.771,266.212C744.18,265.542 744.538,264.774 744.829,263.902L751.382,247.609C752.444,260.183 758.111,272.757 758.111,280.549C758.111,288.341 754.215,291.706 749.079,291.706C744.652,291.706 738.985,288.873 734.203,283.914C734.041,283.737 733.879,283.567 733.718,283.401C737.375,278.764 740.699,273.052 743.771,266.212ZM664.428,293.831C658.407,293.831 655.573,288.695 655.573,281.08C655.573,262.485 670.803,230.077 683.731,230.077C688.69,230.077 690.815,235.567 690.815,243.182C690.815,248.141 689.93,254.162 688.336,260.183C679.835,262.131 674.522,269.924 674.522,278.07C674.522,280.903 675.054,283.56 676.47,286.216C672.751,290.821 668.678,293.831 664.428,293.831ZM483.968,289.758C479.541,289.758 477.593,286.039 477.593,280.195C477.593,263.902 493,232.379 507.876,232.379C511.418,232.379 513.543,234.859 514.074,238.046L505.22,259.829L500.084,272.58C495.125,284.977 488.75,289.758 483.968,289.758ZM484.677,169.334L412.068,169.334C373.816,169.511 358.231,190.231 358.231,208.472C358.231,222.639 367.971,235.744 383.024,235.744C388.869,235.744 392.765,231.14 392.765,225.473C392.765,215.91 380.191,218.035 380.191,207.055C380.191,196.075 390.108,190.762 411.006,190.762L443.06,190.762C433.32,198.2 426.236,211.305 417.204,233.265L392.41,294.008L388.337,303.926C387.452,306.228 387.098,308.176 387.098,310.124C387.098,316.499 391.879,320.218 397.546,320.218C402.505,320.218 408.172,317.208 411.36,309.416L417.735,294.008L442.528,233.088C455.988,199.971 460.592,192.356 475.291,190.762L481.135,190.762C490.167,190.762 496.011,183.855 496.011,178.011C496.011,173.407 492.469,169.334 484.677,169.334" style="fill:rgb(255,202,7);"/>
        </g>
    </g>
</svg>
